<svg xmlns="http://www.w3.org/2000/svg" viewBox="0 0 256 256">
  <rect width="256" height="256" rx="28" fill="#f39a1f" />

  <g stroke="#123a57" stroke-width="8" stroke-linecap="round" stroke-linejoin="round" fill="none">
    <circle cx="128" cy="128" r="62" />
    <circle cx="128" cy="128" r="84" />

    <line x1="128" y1="26" x2="128" y2="230" />
    <line x1="26" y1="74" x2="230" y2="74" />
    <line x1="26" y1="182" x2="230" y2="182" />

    <line x1="128" y1="26" x2="26" y2="74" />
    <line x1="128" y1="26" x2="230" y2="74" />
    <line x1="128" y1="230" x2="26" y2="182" />
    <line x1="128" y1="230" x2="230" y2="182" />

    <line x1="26" y1="74" x2="230" y2="182" />
    <line x1="230" y1="74" x2="26" y2="182" />
    <line x1="26" y1="74" x2="128" y2="230" />
    <line x1="230" y1="74" x2="128" y2="230" />
  </g>

  <g stroke="#123a57" stroke-width="8" stroke-linecap="round" fill="none">
    <circle cx="128" cy="128" r="38" />
    <line x1="128" y1="96" x2="128" y2="58" />
    <line x1="128" y1="160" x2="128" y2="198" />
    <line x1="96" y1="128" x2="58" y2="128" />
    <line x1="160" y1="128" x2="198" y2="128" />
    <line x1="101" y1="113" x2="72" y2="96" />
    <line x1="155" y1="113" x2="184" y2="96" />
    <line x1="101" y1="143" x2="72" y2="160" />
    <line x1="155" y1="143" x2="184" y2="160" />
  </g>

  <circle cx="128" cy="128" r="24" fill="#7fd3e8" stroke="#123a57" stroke-width="8" />
  <circle cx="128" cy="128" r="46" fill="none" stroke="#8ad6ea" stroke-width="8" />

  <g fill="#7fd3e8" stroke="#123a57" stroke-width="8">
    <circle cx="128" cy="26" r="15" />
    <circle cx="26" cy="74" r="15" />
    <circle cx="230" cy="74" r="15" />
    <circle cx="26" cy="182" r="15" />
    <circle cx="230" cy="182" r="15" />
    <circle cx="128" cy="230" r="15" />
  </g>
</svg>
